<svg version="1.1" viewBox="0.0 0.0 480.2230971128609 360.3333333333333" fill="none" stroke="none" stroke-linecap="square" stroke-miterlimit="10" xmlns:xlink="http://www.w3.org/1999/xlink" xmlns="http://www.w3.org/2000/svg"><clipPath id="p.0"><path d="m0 0l480.22308 0l0 360.33334l-480.22308 0l0 -360.33334z" clip-rule="nonzero"/></clipPath><g clip-path="url(#p.0)"><path fill="#000000" fill-opacity="0.0" d="m0 0l480.22308 0l0 360.33334l-480.22308 0z" fill-rule="evenodd"/><defs><radialGradient id="p.1" gradientUnits="userSpaceOnUse" gradientTransform="matrix(15.96116783863154 0.0 0.0 15.96116783863154 0.0 0.0)" spreadMethod="pad" cx="15.043484704848193" cy="11.2878127120674" fx="15.043484704848193" fy="11.2878127120674" r="15.96116828918457"><stop offset="0.0" stop-color="#500080"/><stop offset="1.0" stop-color="#000000"/></radialGradient></defs><path fill="url(#p.1)" d="m60.001347 180.16667l0 0c0 -99.50693 80.63811 -180.17323 180.11024 -180.17323l0 0c47.768204 0 93.57994 18.982483 127.35716 52.771515c33.77722 33.789032 52.753082 79.6168 52.753082 127.40171l0 0c0 99.50694 -80.63812 180.17323 -180.11024 180.17323l0 0c-99.47214 0 -180.11024 -80.66629 -180.11024 -180.17323z" fill-rule="evenodd"/><g filter="url(#shadowFilter-p.2)"><use xlink:href="#p.2" transform=""/></g><defs><filter id="shadowFilter-p.2" filterUnits="userSpaceOnUse"><feGaussianBlur in="SourceAlpha" stdDeviation="5.0" result="blur"/><feComponentTransfer in="blur" color-interpolation-filters="sRGB"><feFuncR type="linear" slope="0" intercept="0.0"/><feFuncG type="linear" slope="0" intercept="0.0"/><feFuncB type="linear" slope="0" intercept="0.0"/><feFuncA type="linear" slope="1.0" intercept="0"/></feComponentTransfer></filter></defs><g id="p.2"><path fill="#000000" d="m105.14796 122.42411l-3.497322 16.418983l18.554497 0l-17.406517 82.01483l-18.55449 0l-3.497322 16.392288l54.782463 0l3.4973297 -16.392288l-18.527802 0l17.406525 -82.01483l18.527786 0l3.4973145 -16.418983z" fill-rule="evenodd"/><path fill="#000000" d="m186.22256 122.26392l-15.057159 70.85526c-1.8332062 8.649994 -1.486145 16.392288 1.0411835 23.226852c2.5451202 6.8345795 6.905655 12.191879 13.081589 16.071915c6.1759186 3.8800507 13.686707 5.8200684 22.532349 5.8200684c8.863449 0 17.201843 -1.9400177 25.015198 -5.8200684c7.8311462 -3.8800354 14.469833 -9.237335 19.916046 -16.071915c5.4461975 -6.834564 9.085907 -14.5768585 10.919128 -23.226852l15.057159 -70.85526l-16.899261 0l-14.736816 69.386894c-1.1746674 5.5708923 -3.5507202 10.572235 -7.128128 15.004013c-3.559616 4.431793 -7.8400574 7.9647675 -12.841309 10.598923c-4.9834595 2.6163635 -10.207199 3.9245453 -15.671204 3.9245453c-5.1258545 0 -9.575363 -1.3081818 -13.3485565 -3.9245453c-3.7553864 -2.6341553 -6.4785004 -6.1671295 -8.169312 -10.598923c-1.6730194 -4.431778 -1.9221954 -9.433121 -0.7475281 -15.004013l14.736816 -69.386894z" fill-rule="evenodd"/><path fill="#000000" d="m360.59628 121.4363c-8.311707 0 -16.392029 1.4772644 -24.240967 4.4317856c-7.8489685 2.9545288 -15.039398 7.08374 -21.57129 12.387665c-6.531891 5.3039093 -12.058197 11.515533 -16.578888 18.634872c-4.5207214 7.1015472 -7.6531677 14.754837 -9.3974 22.959885c-1.7619934 8.311829 -1.9043884 16.045227 -0.42715454 23.200165c1.4950562 7.1549377 4.4050293 13.419952 8.72998 18.79506c4.3249207 5.3573 9.771118 9.539917 16.338623 12.547836c6.5852966 2.9901276 14.033783 4.485199 22.345459 4.485199c7.226013 0 14.185059 -1.2280884 20.877167 -3.6842651c6.7098694 -2.4561768 12.8591 -5.9268494 18.447693 -10.412033c5.6063843 -4.485199 10.376282 -9.815796 14.309662 -15.991837c3.9333496 -6.1760254 6.7009583 -13.0372925 8.302795 -20.583801c0.21356201 -0.97891235 0.40045166 -1.9845123 0.5606384 -3.0168152c0.17797852 -1.0500946 0.32925415 -2.144699 0.45385742 -3.2837982c0.1423645 -1.1568909 0.23138428 -2.3404846 0.26696777 -3.550766l-50.8313 0l-3.7376099 17.56697l32.61911 0l-0.20880127 0.9878082c-0.7119446 3.3816833 -2.2069702 6.5764923 -4.485138 9.584412c-2.2781372 3.0079193 -5.1436462 5.6598816 -8.596466 7.9558716c-3.435028 2.29599 -7.1993103 4.075821 -11.292877 5.339508c-4.093567 1.2458801 -8.267212 1.8688354 -12.520935 1.8688354c-5.6953735 0 -10.856812 -1.0857086 -15.484314 -3.2571106c-4.6097107 -2.1891937 -8.44519 -5.197113 -11.50647 -9.023758c-3.0612793 -3.844452 -5.152527 -8.302933 -6.2738037 -13.375473c-1.1034851 -5.090317 -1.0501099 -10.474335 0.16018677 -16.152008c1.2636414 -5.9090576 3.4528198 -11.346451 6.5674744 -16.312195c3.1324463 -4.983536 6.976837 -9.335236 11.533142 -13.0550995c4.5740967 -3.7198486 9.566467 -6.620987 14.977081 -8.7034c5.4284363 -2.0823975 11.097107 -3.1236115 17.006073 -3.1236115c3.6130066 0 7.10141 0.5517578 10.465271 1.6552582c3.3816223 1.0856934 6.5674744 2.669754 9.557556 4.7521515c3.0078735 2.0824127 5.819977 4.707672 8.436279 7.875778l14.042694 -11.987198c-2.0467834 -3.826645 -5.001251 -7.2083282 -8.863464 -10.145065c-3.8443604 -2.9545212 -8.356171 -5.250511 -13.535431 -6.8879547c-5.161438 -1.6552505 -10.6432495 -2.482872 -16.445404 -2.482872z" fill-rule="evenodd"/><path stroke="#000000" stroke-width="12.0" stroke-linejoin="round" stroke-linecap="butt" d="m105.14796 122.42411l-3.497322 16.418983l18.554497 0l-17.406517 82.01483l-18.55449 0l-3.497322 16.392288l54.782463 0l3.4973297 -16.392288l-18.527802 0l17.406525 -82.01483l18.527786 0l3.4973145 -16.418983z" fill-rule="evenodd"/><path stroke="#000000" stroke-width="12.0" stroke-linejoin="round" stroke-linecap="butt" d="m186.22256 122.26392l-15.057159 70.85526c-1.8332062 8.649994 -1.486145 16.392288 1.0411835 23.226852c2.5451202 6.8345795 6.905655 12.191879 13.081589 16.071915c6.1759186 3.8800507 13.686707 5.8200684 22.532349 5.8200684c8.863449 0 17.201843 -1.9400177 25.015198 -5.8200684c7.8311462 -3.8800354 14.469833 -9.237335 19.916046 -16.071915c5.4461975 -6.834564 9.085907 -14.5768585 10.919128 -23.226852l15.057159 -70.85526l-16.899261 0l-14.736816 69.386894c-1.1746674 5.5708923 -3.5507202 10.572235 -7.128128 15.004013c-3.559616 4.431793 -7.8400574 7.9647675 -12.841309 10.598923c-4.9834595 2.6163635 -10.207199 3.9245453 -15.671204 3.9245453c-5.1258545 0 -9.575363 -1.3081818 -13.3485565 -3.9245453c-3.7553864 -2.6341553 -6.4785004 -6.1671295 -8.169312 -10.598923c-1.6730194 -4.431778 -1.9221954 -9.433121 -0.7475281 -15.004013l14.736816 -69.386894z" fill-rule="evenodd"/><path stroke="#000000" stroke-width="12.0" stroke-linejoin="round" stroke-linecap="butt" d="m360.59628 121.4363c-8.311707 0 -16.392029 1.4772644 -24.240967 4.4317856c-7.8489685 2.9545288 -15.039398 7.08374 -21.57129 12.387665c-6.531891 5.3039093 -12.058197 11.515533 -16.578888 18.634872c-4.5207214 7.1015472 -7.6531677 14.754837 -9.3974 22.959885c-1.7619934 8.311829 -1.9043884 16.045227 -0.42715454 23.200165c1.4950562 7.1549377 4.4050293 13.419952 8.72998 18.79506c4.3249207 5.3573 9.771118 9.539917 16.338623 12.547836c6.5852966 2.9901276 14.033783 4.485199 22.345459 4.485199c7.226013 0 14.185059 -1.2280884 20.877167 -3.6842651c6.7098694 -2.4561768 12.8591 -5.9268494 18.447693 -10.412033c5.6063843 -4.485199 10.376282 -9.815796 14.309662 -15.991837c3.9333496 -6.1760254 6.7009583 -13.0372925 8.302795 -20.583801c0.21356201 -0.97891235 0.40045166 -1.9845123 0.5606384 -3.0168152c0.17797852 -1.0500946 0.32925415 -2.144699 0.45385742 -3.2837982c0.1423645 -1.1568909 0.23138428 -2.3404846 0.26696777 -3.550766l-50.8313 0l-3.7376099 17.56697l32.61911 0l-0.20880127 0.9878082c-0.7119446 3.3816833 -2.2069702 6.5764923 -4.485138 9.584412c-2.2781372 3.0079193 -5.1436462 5.6598816 -8.596466 7.9558716c-3.435028 2.29599 -7.1993103 4.075821 -11.292877 5.339508c-4.093567 1.2458801 -8.267212 1.8688354 -12.520935 1.8688354c-5.6953735 0 -10.856812 -1.0857086 -15.484314 -3.2571106c-4.6097107 -2.1891937 -8.44519 -5.197113 -11.50647 -9.023758c-3.0612793 -3.844452 -5.152527 -8.302933 -6.2738037 -13.375473c-1.1034851 -5.090317 -1.0501099 -10.474335 0.16018677 -16.152008c1.2636414 -5.9090576 3.4528198 -11.346451 6.5674744 -16.312195c3.1324463 -4.983536 6.976837 -9.335236 11.533142 -13.0550995c4.5740967 -3.7198486 9.566467 -6.620987 14.977081 -8.7034c5.4284363 -2.0823975 11.097107 -3.1236115 17.006073 -3.1236115c3.6130066 0 7.10141 0.5517578 10.465271 1.6552582c3.3816223 1.0856934 6.5674744 2.669754 9.557556 4.7521515c3.0078735 2.0824127 5.819977 4.707672 8.436279 7.875778l14.042694 -11.987198c-2.0467834 -3.826645 -5.001251 -7.2083282 -8.863464 -10.145065c-3.8443604 -2.9545212 -8.356171 -5.250511 -13.535431 -6.8879547c-5.161438 -1.6552505 -10.6432495 -2.482872 -16.445404 -2.482872z" fill-rule="evenodd"/></g><g filter="url(#shadowFilter-p.3)"><use xlink:href="#p.3" transform=""/></g><defs><filter id="shadowFilter-p.3" filterUnits="userSpaceOnUse"><feGaussianBlur in="SourceAlpha" stdDeviation="5.0" result="blur"/><feComponentTransfer in="blur" color-interpolation-filters="sRGB"><feFuncR type="linear" slope="0" intercept="0.0"/><feFuncG type="linear" slope="0" intercept="0.0"/><feFuncB type="linear" slope="0" intercept="1.0"/><feFuncA type="linear" slope="1.0" intercept="0"/></feComponentTransfer></filter></defs><g id="p.3"><defs><linearGradient id="p.4" gradientUnits="userSpaceOnUse" gradientTransform="matrix(10.83713985848898 0.0 0.0 10.83713985848898 0.0 0.0)" spreadMethod="pad" x1="7.44894940986147" y1="11.205461379537997" x2="7.448910148217767" y2="22.042601237955857"><stop offset="0.0" stop-color="#00a0ff"/><stop offset="1.0" stop-color="#0000ff"/></linearGradient></defs><path fill="url(#p.4)" d="m105.126465 122.42411l-3.497322 16.418983l18.554497 0l-17.406517 82.01483l-18.55449 0l-3.497322 16.392288l54.78247 0l3.4973145 -16.392288l-18.527794 0l17.406517 -82.01483l18.527802 0l3.4973145 -16.418983z" fill-rule="evenodd"/><defs><linearGradient id="p.5" gradientUnits="userSpaceOnUse" gradientTransform="matrix(10.83713985848898 0.0 0.0 10.83713985848898 0.0 0.0)" spreadMethod="pad" x1="7.44894940986147" y1="11.205461379537997" x2="7.448910148217767" y2="22.042601237955857"><stop offset="0.0" stop-color="#00a0ff"/><stop offset="1.0" stop-color="#0000ff"/></linearGradient></defs><path fill="url(#p.5)" d="m186.20108 122.26392l-15.057175 70.85526c-1.8332062 8.649994 -1.486145 16.392288 1.0411835 23.226852c2.5451355 6.8345795 6.905655 12.191879 13.081589 16.071915c6.175934 3.8800507 13.686722 5.8200684 22.532364 5.8200684c8.863434 0 17.201828 -1.9400177 25.015182 -5.8200684c7.8311615 -3.8800354 14.469833 -9.237335 19.916046 -16.071915c5.446213 -6.834564 9.085922 -14.5768585 10.919113 -23.226852l15.05719 -70.85526l-16.899292 0l-14.736801 69.386894c-1.1746674 5.5708923 -3.550705 10.572235 -7.128128 15.004013c-3.5596008 4.431793 -7.840042 7.9647675 -12.841309 10.598923c-4.9834595 2.6163635 -10.207184 3.9245453 -15.671204 3.9245453c-5.125839 0 -9.575363 -1.3081818 -13.3485565 -3.9245453c-3.7553864 -2.6341553 -6.478485 -6.1671295 -8.169312 -10.598923c-1.6730194 -4.431778 -1.9221954 -9.433121 -0.7475128 -15.004013l14.736801 -69.386894z" fill-rule="evenodd"/><defs><linearGradient id="p.6" gradientUnits="userSpaceOnUse" gradientTransform="matrix(10.83713985848898 0.0 0.0 10.83713985848898 0.0 0.0)" spreadMethod="pad" x1="7.44894940986147" y1="11.205461379537997" x2="7.448910148217767" y2="22.042601237955857"><stop offset="0.0" stop-color="#00a0ff"/><stop offset="1.0" stop-color="#0000ff"/></linearGradient></defs><path fill="url(#p.6)" d="m360.5748 121.4363c-8.311707 0 -16.392029 1.4772644 -24.240997 4.4317856c-7.848938 2.9545288 -15.039368 7.08374 -21.571259 12.387665c-6.531891 5.3039093 -12.058197 11.515533 -16.578888 18.634872c-4.5207214 7.1015472 -7.6531677 14.754837 -9.3974 22.959885c-1.7619934 8.311829 -1.9043884 16.045227 -0.42715454 23.200165c1.4950562 7.1549377 4.4050293 13.419952 8.72995 18.79506c4.324951 5.3573 9.771149 9.539917 16.338654 12.547836c6.585266 2.9901276 14.033783 4.485199 22.345459 4.485199c7.226013 0 14.185059 -1.2280884 20.877136 -3.6842651c6.7099 -2.4561768 12.859131 -5.9268494 18.447723 -10.412033c5.6063843 -4.485199 10.376251 -9.815796 14.309631 -15.991837c3.9333801 -6.1760254 6.700989 -13.0372925 8.302795 -20.583801c0.21359253 -0.97891235 0.40048218 -1.9845123 0.5606384 -3.0168152c0.17797852 -1.0500946 0.32928467 -2.144699 0.45385742 -3.2837982c0.14239502 -1.1568909 0.23138428 -2.3404846 0.26696777 -3.550766l-50.8313 0l-3.7375793 17.56697l32.61911 0l-0.20883179 0.9878082c-0.71191406 3.3816833 -2.2069397 6.5764923 -4.4851074 9.584412c-2.2781677 3.0079193 -5.1436462 5.6598816 -8.596466 7.9558716c-3.435028 2.29599 -7.1993103 4.075821 -11.292877 5.339508c-4.093567 1.2458801 -8.267212 1.8688354 -12.520935 1.8688354c-5.695404 0 -10.856842 -1.0857086 -15.4843445 -3.2571106c-4.60968 -2.1891937 -8.44519 -5.197113 -11.506439 -9.023758c-3.0612793 -3.844452 -5.1525574 -8.302933 -6.273834 -13.375473c-1.1034546 -5.090317 -1.0500793 -10.474335 0.16018677 -16.152008c1.2636719 -5.9090576 3.4528198 -11.346451 6.567505 -16.312195c3.1324463 -4.983536 6.976837 -9.335236 11.533142 -13.0550995c4.5740967 -3.7198486 9.566467 -6.620987 14.977081 -8.7034c5.428406 -2.0823975 11.097107 -3.1236115 17.006042 -3.1236115c3.613037 0 7.1014404 0.5517578 10.465271 1.6552582c3.3816528 1.0856934 6.567505 2.669754 9.557587 4.7521515c3.007843 2.0824127 5.8199463 4.707672 8.436279 7.875778l14.042664 -11.987198c-2.046753 -3.826645 -5.001251 -7.2083282 -8.863434 -10.145065c-3.8443909 -2.9545212 -8.356201 -5.250511 -13.535431 -6.8879547c-5.161438 -1.6552505 -10.6432495 -2.482872 -16.445404 -2.482872z" fill-rule="evenodd"/></g></g></svg>