<svg version="1.1" viewBox="0.0 0.0 480.2230971128609 360.3333333333333" fill="none" stroke="none" stroke-linecap="square" stroke-miterlimit="10" xmlns:xlink="http://www.w3.org/1999/xlink" xmlns="http://www.w3.org/2000/svg"><clipPath id="p.0"><path d="m0 0l480.22308 0l0 360.33334l-480.22308 0l0 -360.33334z" clip-rule="nonzero"/></clipPath><g clip-path="url(#p.0)"><path fill="#000000" fill-opacity="0.0" d="m0 0l480.22308 0l0 360.33334l-480.22308 0z" fill-rule="evenodd"/><defs><radialGradient id="p.1" gradientUnits="userSpaceOnUse" gradientTransform="matrix(15.96116783863154 0.0 0.0 15.96116783863154 0.0 0.0)" spreadMethod="pad" cx="15.043484704848193" cy="11.2878127120674" fx="15.043484704848193" fy="11.2878127120674" r="15.96116828918457"><stop offset="0.0" stop-color="#500080"/><stop offset="1.0" stop-color="#000000"/></radialGradient></defs><path fill="url(#p.1)" d="m60.001347 180.16667l0 0c0 -99.50693 80.63811 -180.17323 180.11024 -180.17323l0 0c47.768204 0 93.57994 18.982483 127.35716 52.771515c33.77722 33.789032 52.753082 79.6168 52.753082 127.40171l0 0c0 99.50694 -80.63812 180.17323 -180.11024 180.17323l0 0c-99.47214 0 -180.11024 -80.66629 -180.11024 -180.17323z" fill-rule="evenodd"/><g filter="url(#shadowFilter-p.2)"><use xlink:href="#p.2" transform=""/></g><defs><filter id="shadowFilter-p.2" filterUnits="userSpaceOnUse"><feGaussianBlur in="SourceAlpha" stdDeviation="5.0" result="blur"/><feComponentTransfer in="blur" color-interpolation-filters="sRGB"><feFuncR type="linear" slope="0" intercept="0.0"/><feFuncG type="linear" slope="0" intercept="0.0"/><feFuncB type="linear" slope="0" intercept="0.0"/><feFuncA type="linear" slope="1.0" intercept="0"/></feComponentTransfer></filter></defs><g id="p.2"><path fill="#000000" d="m107.77394 76.50258l0 14.810112l16.736374 0l0 73.978355l-16.736374 0l0 14.786041l49.41443 0l0 -14.786041l-16.71228 0l0 -73.978355l16.71228 0l0 -14.810112z" fill-rule="evenodd"/><path fill="#000000" d="m180.88013 76.358086l0 63.912285c0 7.8023987 1.7980499 14.786041 5.394165 20.950897c3.5960999 6.164871 8.548782 10.997208 14.8580475 14.497055c6.325302 3.4998474 13.477386 5.249771 21.456268 5.249771c7.994919 0 15.147018 -1.7499237 21.456268 -5.249771c6.30925 -3.4998474 11.261932 -8.332184 14.8580475 -14.497055c3.612152 -6.164856 5.4182434 -13.148499 5.4182434 -20.950897l0 -63.912285l-15.243347 0l0 62.587807c0 5.024994 -1.1880035 9.53627 -3.5639954 13.533798c-2.3599548 3.997528 -5.538666 7.184311 -9.536133 9.5603485c-3.9974518 2.3599854 -8.460495 3.539978 -13.389084 3.539978c-4.623581 0 -8.885941 -1.1799927 -12.787079 -3.539978c-3.9011383 -2.3760376 -7.0397034 -5.5628204 -9.41571 -9.5603485c-2.3599548 -3.997528 -3.539917 -8.508804 -3.539917 -13.533798l0 -62.587807z" fill-rule="evenodd"/><path fill="#000000" d="m337.99872 75.61156c-7.4972534 0 -14.504852 1.3325119 -21.022827 3.997528c-6.501892 2.6650238 -12.193054 6.3896255 -17.073486 11.173813c-4.8804626 4.784195 -8.677246 10.387161 -11.390381 16.808884c-2.7131348 6.405678 -4.069702 13.309044 -4.069702 20.710083c0 7.4973755 1.3565674 14.472977 4.069702 20.926819c2.7131348 6.453842 6.5339966 12.104965 11.462616 16.95337c4.928589 4.8323517 10.643829 8.605118 17.145752 11.318314c6.5179443 2.6971283 13.525543 4.045685 21.022797 4.045685c6.5179443 0 12.562317 -1.1077423 18.133087 -3.3232422c5.5707703 -2.2154999 10.451202 -5.3461 14.641296 -9.391785c4.1901245 -4.0457 7.465149 -8.853958 9.825104 -14.42482c2.376007 -5.5708466 3.5639954 -11.759796 3.5639954 -18.566833c0 -0.88298035 -0.02407837 -1.7900543 -0.07223511 -2.7212067c-0.04815674 -0.9472046 -0.12042236 -1.9345398 -0.21673584 -2.9620209c-0.09631348 -1.0435333 -0.24884033 -2.111145 -0.45755005 -3.202835l-45.850433 0l0 15.845627l29.427124 0l0 0.89100647c0 3.0503235 -0.73846436 5.932068 -2.215454 8.645264c-1.4769897 2.7131653 -3.547943 5.1052704 -6.212921 7.176285c-2.664978 2.0709991 -5.7232666 3.6764374 -9.174896 4.8162994c-3.4516296 1.1237946 -7.0959167 1.6856995 -10.932831 1.6856995c-5.1372986 0 -10.001678 -0.9793091 -14.59317 -2.9379425c-4.575409 -1.9746857 -8.613007 -4.687866 -12.112793 -8.139542c-3.4997864 -3.467743 -6.2369995 -7.4893494 -8.211639 -12.064835c-1.9746704 -4.5915375 -2.961975 -9.447968 -2.961975 -14.569305c0 -5.3300323 0.9311218 -10.234634 2.793396 -14.713791c1.8783264 -4.4952087 4.519226 -8.420494 7.922699 -11.775848c3.4034424 -3.3553543 7.3447266 -5.9722137 11.823822 -7.850563c4.495117 -1.8783569 9.407684 -2.8175354 14.73764 -2.8175354c3.2589722 0 6.509918 0.49768066 9.752838 1.4930496c3.2589722 0.9793167 6.437683 2.4081497 9.536102 4.2865067c3.114502 1.8783569 6.156769 4.2463684 9.12677 7.104042l10.354858 -10.812592c-2.568634 -3.451683 -5.8757935 -6.501999 -9.921417 -9.15097c-4.045624 -2.6650162 -8.556824 -4.736023 -13.533569 -6.2130203c-4.976776 -1.4930573 -10.08197 -2.2395859 -15.315582 -2.2395859z" fill-rule="evenodd"/><path stroke="#000000" stroke-width="12.0" stroke-linejoin="round" stroke-linecap="butt" d="m107.77394 76.50258l0 14.810112l16.736374 0l0 73.978355l-16.736374 0l0 14.786041l49.41443 0l0 -14.786041l-16.71228 0l0 -73.978355l16.71228 0l0 -14.810112z" fill-rule="evenodd"/><path stroke="#000000" stroke-width="12.0" stroke-linejoin="round" stroke-linecap="butt" d="m180.88013 76.358086l0 63.912285c0 7.8023987 1.7980499 14.786041 5.394165 20.950897c3.5960999 6.164871 8.548782 10.997208 14.8580475 14.497055c6.325302 3.4998474 13.477386 5.249771 21.456268 5.249771c7.994919 0 15.147018 -1.7499237 21.456268 -5.249771c6.30925 -3.4998474 11.261932 -8.332184 14.8580475 -14.497055c3.612152 -6.164856 5.4182434 -13.148499 5.4182434 -20.950897l0 -63.912285l-15.243347 0l0 62.587807c0 5.024994 -1.1880035 9.53627 -3.5639954 13.533798c-2.3599548 3.997528 -5.538666 7.184311 -9.536133 9.5603485c-3.9974518 2.3599854 -8.460495 3.539978 -13.389084 3.539978c-4.623581 0 -8.885941 -1.1799927 -12.787079 -3.539978c-3.9011383 -2.3760376 -7.0397034 -5.5628204 -9.41571 -9.5603485c-2.3599548 -3.997528 -3.539917 -8.508804 -3.539917 -13.533798l0 -62.587807z" fill-rule="evenodd"/><path stroke="#000000" stroke-width="12.0" stroke-linejoin="round" stroke-linecap="butt" d="m337.99872 75.61156c-7.4972534 0 -14.504852 1.3325119 -21.022827 3.997528c-6.501892 2.6650238 -12.193054 6.3896255 -17.073486 11.173813c-4.8804626 4.784195 -8.677246 10.387161 -11.390381 16.808884c-2.7131348 6.405678 -4.069702 13.309044 -4.069702 20.710083c0 7.4973755 1.3565674 14.472977 4.069702 20.926819c2.7131348 6.453842 6.5339966 12.104965 11.462616 16.95337c4.928589 4.8323517 10.643829 8.605118 17.145752 11.318314c6.5179443 2.6971283 13.525543 4.045685 21.022797 4.045685c6.5179443 0 12.562317 -1.1077423 18.133087 -3.3232422c5.5707703 -2.2154999 10.451202 -5.3461 14.641296 -9.391785c4.1901245 -4.0457 7.465149 -8.853958 9.825104 -14.42482c2.376007 -5.5708466 3.5639954 -11.759796 3.5639954 -18.566833c0 -0.88298035 -0.02407837 -1.7900543 -0.07223511 -2.7212067c-0.04815674 -0.9472046 -0.12042236 -1.9345398 -0.21673584 -2.9620209c-0.09631348 -1.0435333 -0.24884033 -2.111145 -0.45755005 -3.202835l-45.850433 0l0 15.845627l29.427124 0l0 0.89100647c0 3.0503235 -0.73846436 5.932068 -2.215454 8.645264c-1.4769897 2.7131653 -3.547943 5.1052704 -6.212921 7.176285c-2.664978 2.0709991 -5.7232666 3.6764374 -9.174896 4.8162994c-3.4516296 1.1237946 -7.0959167 1.6856995 -10.932831 1.6856995c-5.1372986 0 -10.001678 -0.9793091 -14.59317 -2.9379425c-4.575409 -1.9746857 -8.613007 -4.687866 -12.112793 -8.139542c-3.4997864 -3.467743 -6.2369995 -7.4893494 -8.211639 -12.064835c-1.9746704 -4.5915375 -2.961975 -9.447968 -2.961975 -14.569305c0 -5.3300323 0.9311218 -10.234634 2.793396 -14.713791c1.8783264 -4.4952087 4.519226 -8.420494 7.922699 -11.775848c3.4034424 -3.3553543 7.3447266 -5.9722137 11.823822 -7.850563c4.495117 -1.8783569 9.407684 -2.8175354 14.73764 -2.8175354c3.2589722 0 6.509918 0.49768066 9.752838 1.4930496c3.2589722 0.9793167 6.437683 2.4081497 9.536102 4.2865067c3.114502 1.8783569 6.156769 4.2463684 9.12677 7.104042l10.354858 -10.812592c-2.568634 -3.451683 -5.8757935 -6.501999 -9.921417 -9.15097c-4.045624 -2.6650162 -8.556824 -4.736023 -13.533569 -6.2130203c-4.976776 -1.4930573 -10.08197 -2.2395859 -15.315582 -2.2395859z" fill-rule="evenodd"/></g><g filter="url(#shadowFilter-p.3)"><use xlink:href="#p.3" transform=""/></g><defs><filter id="shadowFilter-p.3" filterUnits="userSpaceOnUse"><feGaussianBlur in="SourceAlpha" stdDeviation="5.0" result="blur"/><feComponentTransfer in="blur" color-interpolation-filters="sRGB"><feFuncR type="linear" slope="0" intercept="0.0"/><feFuncG type="linear" slope="0" intercept="0.0"/><feFuncB type="linear" slope="0" intercept="1.0"/><feFuncA type="linear" slope="1.0" intercept="0"/></feComponentTransfer></filter></defs><g id="p.3"><defs><linearGradient id="p.4" gradientUnits="userSpaceOnUse" gradientTransform="matrix(10.292497054289395 0.0 0.0 10.292497054289395 0.0 0.0)" spreadMethod="pad" x1="10.46923322853395" y1="7.346182250947444" x2="10.46919637186925" y2="17.638679305170847"><stop offset="0.0" stop-color="#00a0ff"/><stop offset="1.0" stop-color="#0000ff"/></linearGradient></defs><path fill="url(#p.4)" d="m107.754555 76.50258l0 14.810112l16.736374 0l0 73.978355l-16.736374 0l0 14.786041l49.414436 0l0 -14.786041l-16.712296 0l0 -73.978355l16.712296 0l0 -14.810112z" fill-rule="evenodd"/><defs><linearGradient id="p.5" gradientUnits="userSpaceOnUse" gradientTransform="matrix(10.292497054289395 0.0 0.0 10.292497054289395 0.0 0.0)" spreadMethod="pad" x1="10.46923322853395" y1="7.346182250947444" x2="10.46919637186925" y2="17.638679305170847"><stop offset="0.0" stop-color="#00a0ff"/><stop offset="1.0" stop-color="#0000ff"/></linearGradient></defs><path fill="url(#p.5)" d="m180.86073 76.358086l0 63.912285c0 7.8023987 1.7980652 14.786041 5.394165 20.950897c3.596115 6.164871 8.548798 10.997208 14.8580475 14.497055c6.325302 3.4998474 13.477402 5.249771 21.456268 5.249771c7.994934 0 15.147018 -1.7499237 21.456268 -5.249771c6.30925 -3.4998474 11.261932 -8.332184 14.858032 -14.497055c3.6121826 -6.164856 5.418274 -13.148499 5.418274 -20.950897l0 -63.912285l-15.243347 0l0 62.587807c0 5.024994 -1.1880035 9.53627 -3.5640106 13.533798c-2.3599548 3.997528 -5.5386505 7.184311 -9.536118 9.5603485c-3.997467 2.3599854 -8.460495 3.539978 -13.389099 3.539978c-4.6235657 0 -8.885925 -1.1799927 -12.787064 -3.539978c-3.9011383 -2.3760376 -7.0397186 -5.5628204 -9.41571 -9.5603485c-2.3599548 -3.997528 -3.5399323 -8.508804 -3.5399323 -13.533798l0 -62.587807z" fill-rule="evenodd"/><defs><linearGradient id="p.6" gradientUnits="userSpaceOnUse" gradientTransform="matrix(10.292497054289395 0.0 0.0 10.292497054289395 0.0 0.0)" spreadMethod="pad" x1="10.46923322853395" y1="7.346182250947444" x2="10.46919637186925" y2="17.638679305170847"><stop offset="0.0" stop-color="#00a0ff"/><stop offset="1.0" stop-color="#0000ff"/></linearGradient></defs><path fill="url(#p.6)" d="m337.9793 75.61156c-7.4972534 0 -14.504852 1.3325119 -21.022797 3.997528c-6.501892 2.6650238 -12.193054 6.3896255 -17.073517 11.173813c-4.880432 4.784195 -8.677216 10.387161 -11.39035 16.808884c-2.7131348 6.405678 -4.069702 13.309044 -4.069702 20.710083c0 7.4973755 1.3565674 14.472977 4.069702 20.926819c2.7131348 6.453842 6.5339966 12.104965 11.462616 16.95337c4.928589 4.8323517 10.643829 8.605118 17.145721 11.318314c6.517975 2.6971283 13.525574 4.045685 21.022827 4.045685c6.5179443 0 12.562317 -1.1077423 18.133057 -3.3232422c5.5707703 -2.2154999 10.451202 -5.3461 14.641327 -9.391785c4.1901245 -4.0457 7.465149 -8.853958 9.825104 -14.42482c2.3759766 -5.5708466 3.5639954 -11.759796 3.5639954 -18.566833c0 -0.88298035 -0.02407837 -1.7900543 -0.07223511 -2.7212067c-0.04815674 -0.9472046 -0.12042236 -1.9345398 -0.21673584 -2.9620209c-0.09631348 -1.0435333 -0.24884033 -2.111145 -0.45755005 -3.202835l-45.850433 0l0 15.845627l29.427124 0l0 0.89100647c0 3.0503235 -0.7384949 5.932068 -2.215454 8.645264c-1.4769897 2.7131653 -3.5479736 5.1052704 -6.212921 7.176285c-2.664978 2.0709991 -5.723297 3.6764374 -9.174927 4.8162994c-3.4516296 1.1237946 -7.095886 1.6856995 -10.9328 1.6856995c-5.137329 0 -10.001709 -0.9793091 -14.59317 -2.9379425c-4.575409 -1.9746857 -8.613007 -4.687866 -12.112793 -8.139542c-3.4997864 -3.467743 -6.2369995 -7.4893494 -8.21167 -12.064835c-1.9746399 -4.5915375 -2.961975 -9.447968 -2.961975 -14.569305c0 -5.3300323 0.93115234 -10.234634 2.7934265 -14.713791c1.8783264 -4.4952087 4.519226 -8.420494 7.9226685 -11.775848c3.403473 -3.3553543 7.344757 -5.9722137 11.823822 -7.850563c4.4951477 -1.8783569 9.407684 -2.8175354 14.73764 -2.8175354c3.2589722 0 6.5099487 0.49768066 9.752869 1.4930496c3.2589722 0.9793167 6.437683 2.4081497 9.536102 4.2865067c3.114502 1.8783569 6.1567383 4.2463684 9.1267395 7.104042l10.354889 -10.812592c-2.5686646 -3.451683 -5.8757935 -6.501999 -9.921417 -9.15097c-4.045624 -2.6650162 -8.556824 -4.736023 -13.5336 -6.2130203c-4.9767456 -1.4930573 -10.08194 -2.2395859 -15.315582 -2.2395859z" fill-rule="evenodd"/></g><g filter="url(#shadowFilter-p.7)"><use xlink:href="#p.7" transform=""/></g><defs><filter id="shadowFilter-p.7" filterUnits="userSpaceOnUse"><feGaussianBlur in="SourceAlpha" stdDeviation="5.0" result="blur"/><feComponentTransfer in="blur" color-interpolation-filters="sRGB"><feFuncR type="linear" slope="0" intercept="0.0"/><feFuncG type="linear" slope="0" intercept="0.0"/><feFuncB type="linear" slope="0" intercept="0.0"/><feFuncA type="linear" slope="1.0" intercept="0"/></feComponentTransfer></filter></defs><g id="p.7"><path fill="#000000" d="m122.00848 221.40024l25.560768 80.18588l8.352463 0l19.979034 -48.6866l0 0l20.571411 48.6866l8.594833 0l25.54213 -80.18588l-13.293091 0l-15.232056 49.834198c-0.6090393 1.9886475 -1.0875702 3.5546875 -1.4355774 4.698181c-0.3356018 1.1434631 -0.58418274 2.0818481 -0.74575806 2.815155c-0.14915466 0.72088623 -0.29830933 1.4666443 -0.44744873 2.2372437c-0.031158447 0.1583252 -0.06338501 0.3258667 -0.096710205 0.5026245l0 0c-0.4057312 -1.53302 -0.85202026 -3.061554 -1.3388824 -4.5855713c-0.5717468 -1.7897644 -1.2429199 -3.6044312 -2.0135345 -5.4439087l-13.964264 -36.18712l-11.111755 0l-14.430374 36.18712c-0.31072998 0.8451843 -0.6587372 1.8581543 -1.0440521 3.0388794c-0.37287903 1.1807861 -0.88868713 2.883545 -1.5474548 5.1083374c-0.21646118 0.7409668 -0.46081543 1.5844116 -0.7330475 2.5303345l0 0c-0.07714844 -0.41955566 -0.15596008 -0.84664917 -0.23641968 -1.2812195c-0.29830933 -1.6779175 -0.64012146 -3.3371887 -1.0254211 -4.9778137c-0.38529968 -1.640625 -0.80789185 -3.0762024 -1.2677917 -4.306671l-15.45578 -50.16977z" fill-rule="evenodd"/><path fill="#000000" d="m249.2795 213.27165c-2.448578 0 -4.381317 0.68981934 -5.7982483 2.0694275c-1.4045105 1.3672028 -2.1067657 3.1569824 -2.1067657 5.3693542c0 2.373932 0.683609 4.21344 2.050827 5.5184784c1.3796539 1.2926178 3.3310394 1.9389343 5.854187 1.9389343c2.4485626 0 4.3750916 -0.68359375 5.779602 -2.0507965c1.4169159 -1.3796234 2.125412 -3.1818237 2.125412 -5.406616c0 -2.3615265 -0.68984985 -4.1885834 -2.0694885 -5.481201c-1.367218 -1.3050537 -3.3123932 -1.9575806 -5.8355255 -1.9575806zm-5.7236786 28.170395l0 60.144073l11.801575 0l0 -60.144073z" fill-rule="evenodd"/><path fill="#000000" d="m273.44254 216.81393l0 84.77219l11.801605 0l0 -19.754364l0 0l6.553406 -6.1459656l0 0l22.195465 25.90033l15.120178 0l-29.033997 -33.667053l0 0l28.2323 -26.47702l-15.921875 0l-27.145477 26.933746l0 -51.56186z" fill-rule="evenodd"/><path fill="#000000" d="m346.18707 213.27165c-2.448578 0 -4.381317 0.68981934 -5.7982483 2.0694275c-1.4045105 1.3672028 -2.1067505 3.1569824 -2.1067505 5.3693542c0 2.373932 0.68359375 4.21344 2.0508118 5.5184784c1.3796692 1.2926178 3.3310547 1.9389343 5.854187 1.9389343c2.448578 0 4.375122 -0.68359375 5.779602 -2.0507965c1.4169312 -1.3796234 2.1253967 -3.1818237 2.1253967 -5.406616c0 -2.3615265 -0.68981934 -4.1885834 -2.069458 -5.481201c-1.367218 -1.3050537 -3.3124084 -1.9575806 -5.835541 -1.9575806zm-5.7236633 28.170395l0 60.144073l11.801575 0l0 -60.144073z" fill-rule="evenodd"/><path stroke="#000000" stroke-width="12.0" stroke-linejoin="round" stroke-linecap="butt" d="m122.00848 221.40024l25.560768 80.18588l8.352463 0l19.979034 -48.6866l0 0l20.571411 48.6866l8.594833 0l25.54213 -80.18588l-13.293091 0l-15.232056 49.834198c-0.6090393 1.9886475 -1.0875702 3.5546875 -1.4355774 4.698181c-0.3356018 1.1434631 -0.58418274 2.0818481 -0.74575806 2.815155c-0.14915466 0.72088623 -0.29830933 1.4666443 -0.44744873 2.2372437c-0.031158447 0.1583252 -0.06338501 0.3258667 -0.096710205 0.5026245l0 0c-0.4057312 -1.53302 -0.85202026 -3.061554 -1.3388824 -4.5855713c-0.5717468 -1.7897644 -1.2429199 -3.6044312 -2.0135345 -5.4439087l-13.964264 -36.18712l-11.111755 0l-14.430374 36.18712c-0.31072998 0.8451843 -0.6587372 1.8581543 -1.0440521 3.0388794c-0.37287903 1.1807861 -0.88868713 2.883545 -1.5474548 5.1083374c-0.21646118 0.7409668 -0.46081543 1.5844116 -0.7330475 2.5303345l0 0c-0.07714844 -0.41955566 -0.15596008 -0.84664917 -0.23641968 -1.2812195c-0.29830933 -1.6779175 -0.64012146 -3.3371887 -1.0254211 -4.9778137c-0.38529968 -1.640625 -0.80789185 -3.0762024 -1.2677917 -4.306671l-15.45578 -50.16977z" fill-rule="evenodd"/><path stroke="#000000" stroke-width="12.0" stroke-linejoin="round" stroke-linecap="butt" d="m249.2795 213.27165c-2.448578 0 -4.381317 0.68981934 -5.7982483 2.0694275c-1.4045105 1.3672028 -2.1067657 3.1569824 -2.1067657 5.3693542c0 2.373932 0.683609 4.21344 2.050827 5.5184784c1.3796539 1.2926178 3.3310394 1.9389343 5.854187 1.9389343c2.4485626 0 4.3750916 -0.68359375 5.779602 -2.0507965c1.4169159 -1.3796234 2.125412 -3.1818237 2.125412 -5.406616c0 -2.3615265 -0.68984985 -4.1885834 -2.0694885 -5.481201c-1.367218 -1.3050537 -3.3123932 -1.9575806 -5.8355255 -1.9575806zm-5.7236786 28.170395l0 60.144073l11.801575 0l0 -60.144073z" fill-rule="evenodd"/><path stroke="#000000" stroke-width="12.0" stroke-linejoin="round" stroke-linecap="butt" d="m273.44254 216.81393l0 84.77219l11.801605 0l0 -19.754364l0 0l6.553406 -6.1459656l0 0l22.195465 25.90033l15.120178 0l-29.033997 -33.667053l0 0l28.2323 -26.47702l-15.921875 0l-27.145477 26.933746l0 -51.56186z" fill-rule="evenodd"/><path stroke="#000000" stroke-width="12.0" stroke-linejoin="round" stroke-linecap="butt" d="m346.18707 213.27165c-2.448578 0 -4.381317 0.68981934 -5.7982483 2.0694275c-1.4045105 1.3672028 -2.1067505 3.1569824 -2.1067505 5.3693542c0 2.373932 0.68359375 4.21344 2.0508118 5.5184784c1.3796692 1.2926178 3.3310547 1.9389343 5.854187 1.9389343c2.448578 0 4.375122 -0.68359375 5.779602 -2.0507965c1.4169312 -1.3796234 2.1253967 -3.1818237 2.1253967 -5.406616c0 -2.3615265 -0.68981934 -4.1885834 -2.069458 -5.481201c-1.367218 -1.3050537 -3.3124084 -1.9575806 -5.835541 -1.9575806zm-5.7236633 28.170395l0 60.144073l11.801575 0l0 -60.144073z" fill-rule="evenodd"/></g><g filter="url(#shadowFilter-p.8)"><use xlink:href="#p.8" transform=""/></g><defs><filter id="shadowFilter-p.8" filterUnits="userSpaceOnUse"><feGaussianBlur in="SourceAlpha" stdDeviation="5.0" result="blur"/><feComponentTransfer in="blur" color-interpolation-filters="sRGB"><feFuncR type="linear" slope="0" intercept="0.0"/><feFuncG type="linear" slope="0" intercept="0.0"/><feFuncB type="linear" slope="0" intercept="1.0"/><feFuncA type="linear" slope="1.0" intercept="0"/></feComponentTransfer></filter></defs><g id="p.8"><defs><linearGradient id="p.9" gradientUnits="userSpaceOnUse" gradientTransform="matrix(9.397622530179216 0.0 0.0 9.397622530179216 0.0 0.0)" spreadMethod="pad" x1="12.981311888865314" y1="22.694124193985562" x2="12.981278068464057" y2="32.09174672410392"><stop offset="0.0" stop-color="#00a0ff"/><stop offset="1.0" stop-color="#0000ff"/></linearGradient></defs><path fill="url(#p.9)" d="m121.99347 221.40024l25.56076 80.18588l8.352463 0l19.979034 -48.6866l0 0l20.571426 48.6866l8.594818 0l25.54213 -80.18588l-13.293091 0l-15.232056 49.834198c-0.6090393 1.9886475 -1.0875549 3.5546875 -1.4355774 4.698181c-0.33558655 1.1434631 -0.5841675 2.0818481 -0.74575806 2.815155c-0.14915466 0.72088623 -0.29829407 1.4666443 -0.44744873 2.2372437c-0.031143188 0.1583252 -0.06338501 0.3258667 -0.09669495 0.5026245l0 0c-0.40574646 -1.53302 -0.8520355 -3.061554 -1.3388824 -4.5855713c-0.5717468 -1.7897644 -1.2429352 -3.6044312 -2.0135498 -5.4439087l-13.964264 -36.18712l-11.111755 0l-14.430374 36.18712c-0.31071472 0.8451843 -0.6587372 1.8581543 -1.0440521 3.0388794c-0.37287903 1.1807861 -0.88868713 2.883545 -1.5474396 5.1083374c-0.21647644 0.7409668 -0.4608307 1.5844116 -0.73306274 2.5303345l0 0c-0.07713318 -0.41955566 -0.15594482 -0.84664917 -0.23641968 -1.2812195c-0.29830933 -1.6779175 -0.6401062 -3.3371887 -1.0254211 -4.9778137c-0.38529968 -1.640625 -0.80789185 -3.0762024 -1.2677765 -4.306671l-15.45578 -50.16977z" fill-rule="evenodd"/><defs><linearGradient id="p.10" gradientUnits="userSpaceOnUse" gradientTransform="matrix(9.397622530179216 0.0 0.0 9.397622530179216 0.0 0.0)" spreadMethod="pad" x1="12.981311888865314" y1="22.694124193985562" x2="12.981278068464057" y2="32.09174672410392"><stop offset="0.0" stop-color="#00a0ff"/><stop offset="1.0" stop-color="#0000ff"/></linearGradient></defs><path fill="url(#p.10)" d="m249.26448 213.27165c-2.4485626 0 -4.381317 0.68981934 -5.7982483 2.0694275c-1.4045105 1.3672028 -2.1067657 3.1569824 -2.1067657 5.3693542c0 2.373932 0.683609 4.21344 2.050827 5.5184784c1.3796539 1.2926178 3.3310394 1.9389343 5.854187 1.9389343c2.4485626 0 4.3750916 -0.68359375 5.779602 -2.0507965c1.4169464 -1.3796234 2.125412 -3.1818237 2.125412 -5.406616c0 -2.3615265 -0.68981934 -4.1885834 -2.0694733 -5.481201c-1.367218 -1.3050537 -3.3124084 -1.9575806 -5.835541 -1.9575806zm-5.7236786 28.170395l0 60.144073l11.80159 0l0 -60.144073z" fill-rule="evenodd"/><defs><linearGradient id="p.11" gradientUnits="userSpaceOnUse" gradientTransform="matrix(9.397622530179216 0.0 0.0 9.397622530179216 0.0 0.0)" spreadMethod="pad" x1="12.981311888865314" y1="22.694124193985562" x2="12.981278068464057" y2="32.09174672410392"><stop offset="0.0" stop-color="#00a0ff"/><stop offset="1.0" stop-color="#0000ff"/></linearGradient></defs><path fill="url(#p.11)" d="m273.42755 216.81393l0 84.77219l11.801575 0l0 -19.754364l0 0l6.553406 -6.1459656l0 0l22.195465 25.90033l15.120178 0l-29.033997 -33.667053l0 0l28.23233 -26.47702l-15.9219055 0l-27.145477 26.933746l0 -51.56186z" fill-rule="evenodd"/><defs><linearGradient id="p.12" gradientUnits="userSpaceOnUse" gradientTransform="matrix(9.397622530179216 0.0 0.0 9.397622530179216 0.0 0.0)" spreadMethod="pad" x1="12.981311888865314" y1="22.694124193985562" x2="12.981278068464057" y2="32.09174672410392"><stop offset="0.0" stop-color="#00a0ff"/><stop offset="1.0" stop-color="#0000ff"/></linearGradient></defs><path fill="url(#p.12)" d="m346.17206 213.27165c-2.4485474 0 -4.381317 0.68981934 -5.7982483 2.0694275c-1.4045105 1.3672028 -2.1067505 3.1569824 -2.1067505 5.3693542c0 2.373932 0.68359375 4.21344 2.0508118 5.5184784c1.3796692 1.2926178 3.3310547 1.9389343 5.854187 1.9389343c2.448578 0 4.375122 -0.68359375 5.779602 -2.0507965c1.4169312 -1.3796234 2.1254272 -3.1818237 2.1254272 -5.406616c0 -2.3615265 -0.68984985 -4.1885834 -2.0694885 -5.481201c-1.367218 -1.3050537 -3.3124084 -1.9575806 -5.835541 -1.9575806zm-5.7236633 28.170395l0 60.144073l11.801575 0l0 -60.144073z" fill-rule="evenodd"/></g></g></svg>